<svg width="22" height="21" viewBox="0 0 18 17" fill="none" xmlns="http://www.w3.org/2000/svg">
<path d="M13.6458 7.33335L17.1292 16.5H15.4231L14.4723 14H11.2344L10.2852 16.5H8.57996L12.0625 7.33335H13.6458ZM6.91667 0.666687V2.33335H11.6667V4.00002H10.1087C9.49799 5.93508 8.52334 7.72087 7.24283 9.25085C7.81387 9.78719 8.43324 10.2636 9.09217 10.6734L8.49762 12.2384C7.64699 11.7305 6.85143 11.1267 6.125 10.4375C4.71075 11.7848 3.03595 12.7935 1.21588 13.3942L0.791542 11.7867C2.351 11.2633 3.78802 10.3995 5.00875 9.25169C4.10521 8.17497 3.35263 6.96774 2.77388 5.66669H4.54721C4.98845 6.52407 5.51753 7.32802 6.125 8.06419C7.11467 6.86344 7.89461 5.48777 8.42875 4.00085L0.583334 4.00002V2.33335H5.33333V0.666687H6.91667ZM12.8542 9.73752L11.867 12.3334H13.8398L12.8542 9.73752Z" fill="white"/>
</svg>
