<svg width="13" height="17" viewBox="0 0 13 17" fill="none" xmlns="http://www.w3.org/2000/svg">
<path d="M12.7834 5.87168C12.7747 5.84634 12.7676 5.8218 12.7573 5.79726C12.7198 5.71134 12.6672 5.63279 12.6022 5.5653L7.85216 0.815302C7.78467 0.750213 7.70612 0.697669 7.6202 0.660135C7.59645 0.649052 7.57111 0.642718 7.54578 0.63401C7.47954 0.611468 7.41058 0.59789 7.34074 0.593635C7.32332 0.592052 7.30828 0.583344 7.29166 0.583344H1.74999C0.876781 0.583344 0.166656 1.29347 0.166656 2.16668V14.8333C0.166656 15.7066 0.876781 16.4167 1.74999 16.4167H11.25C12.1232 16.4167 12.8333 15.7066 12.8333 14.8333V6.12501C12.8333 6.10839 12.8246 6.09334 12.823 6.07593C12.819 6.00639 12.8057 5.9377 12.7834 5.87168ZM10.1306 5.33334H8.08332V3.28609L10.1306 5.33334ZM1.74999 14.8333V2.16668H6.49999V6.12501C6.49999 6.33497 6.5834 6.53634 6.73186 6.6848C6.88033 6.83327 7.08169 6.91668 7.29166 6.91668H11.25L11.2516 14.8333H1.74999Z" fill="black"/>
</svg>
