<svg width="17" height="15" viewBox="0 0 17 15" fill="none" xmlns="http://www.w3.org/2000/svg">
<path fill-rule="evenodd" clip-rule="evenodd" d="M0.708313 2.54166C0.708313 1.36805 1.65971 0.416656 2.83331 0.416656H6.06224C6.9769 0.416656 7.78896 1.00195 8.07817 1.86967L8.30221 2.54166H14.1666C14.9491 2.54166 15.5833 3.17592 15.5833 3.95832V5.3818C16.3961 5.46114 16.9864 6.22216 16.8367 7.0451L15.6777 13.4201C15.5552 14.0937 14.9685 14.5833 14.2838 14.5833H2.12498C1.34258 14.5833 0.708313 13.9491 0.708313 13.1667V2.54166ZM14.1666 5.37499V3.95832H8.30221C7.69241 3.95832 7.15103 3.56813 6.95821 2.98965L6.73422 2.31766C6.63781 2.02842 6.36712 1.83332 6.06224 1.83332H2.83331C2.44211 1.83332 2.12498 2.15046 2.12498 2.54166V7.69188L2.37594 6.49982C2.51395 5.84425 3.09229 5.37499 3.76221 5.37499H14.1666ZM2.38447 13.1667C2.4209 13.1035 2.44812 13.0336 2.46395 12.9584L3.76221 6.79166H14.875H15.4429L14.2838 13.1667H2.38447Z" fill="black"/>
</svg>
