<svg width="10" height="10" viewBox="0 0 10 10" fill="#d9d9d9" xmlns="http://www.w3.org/2000/svg">
<path d="M6.66671 2.91669H1.66671C1.20712 2.91669 0.833374 3.29044 0.833374 3.75002V7.91669C0.833374 8.37627 1.20712 8.75002 1.66671 8.75002H6.66671C7.12629 8.75002 7.50004 8.37627 7.50004 7.91669V3.75002C7.50004 3.29044 7.12629 2.91669 6.66671 2.91669ZM1.66671 7.91669V4.58335H6.66671V3.75002L6.66754 7.91669H1.66671Z" fill="#D9D9D9"/>
<path d="M9.16671 2.08333C9.16671 1.62375 8.79296 1.25 8.33337 1.25H2.91671C2.45712 1.25 2.08337 1.62375 2.08337 2.08333H7.50046C7.95921 2.08333 8.33212 2.45625 8.33337 2.91417L8.33421 6.25H8.33337V7.08333C8.79296 7.08333 9.16671 6.70958 9.16671 6.25V3.33625L9.16712 3.33333V2.5L9.16671 2.49583V2.08333Z" fill="#D9D9D9"/>
</svg>
